<svg width="63" height="58" viewBox="0 0 63 58" fill="none" xmlns="http://www.w3.org/2000/svg">
<path d="M50.2425 31.2717C50.3475 30.5467 50.4 29.7975 50.4 29C50.4 28.2267 50.3475 27.4533 50.2163 26.7283L55.545 22.91C56.0175 22.5717 56.1488 21.9192 55.86 21.4358L50.82 13.4125C50.505 12.8808 49.8488 12.7117 49.2713 12.8808L42.9975 15.2008C41.685 14.2825 40.2938 13.5092 38.745 12.9292L37.8 6.79084C37.695 6.21084 37.17 5.8 36.54 5.8H26.46C25.83 5.8 25.3312 6.21084 25.2262 6.79084L24.2812 12.9292C22.7325 13.5092 21.315 14.3067 20.0287 15.2008L13.755 12.8808C13.1775 12.6875 12.5212 12.8808 12.2062 13.4125L7.1925 21.4358C6.8775 21.9433 6.9825 22.5717 7.5075 22.91L12.8362 26.7283C12.705 27.4533 12.6 28.2508 12.6 29C12.6 29.7492 12.6525 30.5467 12.7837 31.2717L7.455 35.09C6.9825 35.4283 6.85125 36.0808 7.14 36.5642L12.18 44.5875C12.495 45.1192 13.1512 45.2883 13.7287 45.1192L20.0025 42.7992C21.315 43.7175 22.7062 44.4908 24.255 45.0708L25.2 51.2092C25.3313 51.7892 25.83 52.2 26.46 52.2H36.54C37.17 52.2 37.695 51.7892 37.7738 51.2092L38.7188 45.0708C40.2675 44.4908 41.685 43.7175 42.9713 42.7992L49.245 45.1192C49.8225 45.3125 50.4788 45.1192 50.7938 44.5875L55.8338 36.5642C56.1488 36.0325 56.0175 35.4283 55.5188 35.09L50.2425 31.2717ZM31.5 37.7C26.3025 37.7 22.05 33.785 22.05 29C22.05 24.215 26.3025 20.3 31.5 20.3C36.6975 20.3 40.95 24.215 40.95 29C40.95 33.785 36.6975 37.7 31.5 37.7Z" fill="#FFFDFD"/>
</svg>
